<?xml version="1.0" encoding="UTF-8" standalone="no"?>
<svg
   xmlns:dc="http://purl.org/dc/elements/1.1/"
   xmlns:cc="http://creativecommons.org/ns#"
   xmlns:rdf="http://www.w3.org/1999/02/22-rdf-syntax-ns#"
   xmlns:svg="http://www.w3.org/2000/svg"
   xmlns="http://www.w3.org/2000/svg"
   viewBox="0 0 360.35413 111.40107"
   height="111.40107"
   width="360.35413"
   xml:space="preserve"
   id="svg2"
   version="1.1"><metadata
     id="metadata8"><rdf:RDF><cc:Work
         rdf:about=""><dc:format>image/svg+xml</dc:format><dc:type
           rdf:resource="http://purl.org/dc/dcmitype/StillImage" /></cc:Work></rdf:RDF></metadata><defs
     id="defs6"><clipPath
       id="clipPath14"
       clipPathUnits="userSpaceOnUse"><path
         id="path12"
         d="M 0,0 H 595.28 V 841.89 H 0 Z" /></clipPath><clipPath
       id="clipPath24"
       clipPathUnits="userSpaceOnUse"><path
         id="path22"
         d="M 0,0 H 595.28 V 841.89 H 0 Z" /></clipPath></defs><g
     clip-path="url(#clipPath14)"
     transform="matrix(1.3333333,0,0,-1.3333333,-201.82813,797.18227)"
     id="g10"><g
       id="g16" /><g
       id="g18"><g
         clip-path="url(#clipPath24)"
         id="g20"><g
           transform="translate(182.5127,542.9404)"
           id="g26"><path
             id="path28"
             style="fill:none;stroke:#231f20;stroke-width:0.25;stroke-linecap:butt;stroke-linejoin:miter;stroke-miterlimit:4;stroke-dasharray:none;stroke-opacity:1"
             d="M 0,0 -2.636,1.915" /></g><g
           transform="translate(200.2607,544.9985)"
           id="g30"><path
             id="path32"
             style="fill:none;stroke:#231f20;stroke-width:0.25;stroke-linecap:butt;stroke-linejoin:miter;stroke-miterlimit:4;stroke-dasharray:none;stroke-opacity:1"
             d="M 0,0 -2.978,-2.164" /></g><g
           transform="translate(203.6299,562.3716)"
           id="g34"><path
             id="path36"
             style="fill:none;stroke:#231f20;stroke-width:0.25;stroke-linecap:butt;stroke-linejoin:miter;stroke-miterlimit:4;stroke-dasharray:none;stroke-opacity:1"
             d="M 0,0 1.138,-3.5" /></g><g
           transform="translate(175.2129,558.8711)"
           id="g38"><path
             id="path40"
             style="fill:none;stroke:#231f20;stroke-width:0.25;stroke-linecap:butt;stroke-linejoin:miter;stroke-miterlimit:4;stroke-dasharray:none;stroke-opacity:1"
             d="M 0,0 1.137,3.5" /></g><path
           id="path42"
           style="fill:#231f20;fill-opacity:1;fill-rule:nonzero;stroke:none"
           d="m 212.6836,563.3774 c 1.468,-4.522 -0.916,-9.368 -5.34,-10.991 -0.104,-0.038 -0.21,-0.075 -0.317,-0.11 -1.827,-0.594 -3.708,-0.558 -5.408,-0.012 0,0 -10e-4,-10e-4 -10e-4,-10e-4 -0.019,0.006 -0.039,-0.004 -0.045,-0.022 -0.006,-0.02 0.004,-0.04 0.022,-0.046 v -10e-4 c 1.697,-0.558 3.238,-1.634 4.369,-3.189 0.066,-0.091 0.13,-0.184 0.193,-0.277 2.623,-3.914 1.703,-9.234 -2.141,-12.028 -3.845,-2.794 -9.192,-2.026 -12.103,1.681 -0.069,0.088 -0.137,0.177 -0.203,0.268 -1.13,1.555 -1.676,3.355 -1.682,5.142 -0.001,0.001 -0.001,0.001 -0.001,0.002 -0.001,0.019 -0.016,0.035 -0.036,0.035 -0.02,0 -0.036,-0.016 -0.037,-0.036 0,0 0,0 0,-0.001 -0.007,-1.787 -0.553,-3.587 -1.683,-5.143 -0.066,-0.09 -0.134,-0.179 -0.203,-0.267 -2.911,-3.707 -8.257,-4.475 -12.102,-1.681 -3.845,2.794 -4.766,8.114 -2.142,12.028 0.063,0.094 0.127,0.186 0.193,0.277 1.13,1.556 2.674,2.632 4.37,3.19 0.019,0.005 0.03,0.026 0.024,0.046 -0.007,0.019 -0.027,0.029 -0.047,0.023 v 10e-4 c -1.701,-0.547 -3.581,-0.583 -5.41,0.011 -0.106,0.035 -0.212,0.072 -0.317,0.11 -4.424,1.623 -6.807,6.47 -5.339,10.991 1.503,4.626 6.473,7.16 11.1,5.655 1.828,-0.592 3.328,-1.728 4.382,-3.168 h 0.001 c 0.012,-0.017 0.036,-0.02 0.051,-0.009 0.018,0.012 0.022,0.035 0.01,0.052 -0.001,10e-4 -0.002,10e-4 -0.002,10e-4 -1.044,1.448 -1.659,3.225 -1.659,5.146 0,0.113 0.003,0.225 0.006,0.335 0.178,4.71 4.051,8.474 8.804,8.474 4.753,0 8.626,-3.764 8.802,-8.474 0.004,-0.11 0.007,-0.222 0.007,-0.335 0,-1.922 -0.616,-3.701 -1.661,-5.15 v -10e-4 c -0.011,-0.016 -0.009,-0.037 0.008,-0.049 0.016,-0.013 0.038,-0.009 0.051,0.007 0,0 0,-10e-4 0.001,0 1.054,1.442 2.554,2.578 4.384,3.172 0.107,0.034 0.214,0.067 0.322,0.097 4.533,1.286 9.31,-1.233 10.779,-5.753 m -10.711,9.119 c -0.713,5.985 -5.806,10.626 -11.982,10.626 -6.177,10e-4 -11.27,-4.641 -11.982,-10.626 -5.913,1.17 -11.9,-2.237 -13.811,-8.112 -1.908,-5.876 0.932,-12.153 6.406,-14.679 -2.942,-5.262 -1.551,-12.01 3.447,-15.641 4.997,-3.63 11.845,-2.87 15.94,1.554 4.094,-4.424 10.943,-5.185 15.94,-1.554 4.997,3.631 6.388,10.379 3.446,15.641 5.474,2.526 8.313,8.803 6.406,14.679 -1.91,5.875 -7.898,9.283 -13.81,8.112" /><path
           id="path44"
           style="fill:#231f20;fill-opacity:1;fill-rule:nonzero;stroke:none"
           d="m 204.7681,558.8711 -1.138,3.5 -9.446,-1.565 -1.894,10.073 h -1.84 v -10.692 l -0.92,-0.152 0.001,10.844 h -1.842 l -1.893,-10.073 -9.446,1.565 -1.137,-3.5 9.181,-4.597 -4.517,-9.419 2.636,-1.915 7.017,6.687 0.001,3.891 0.919,0.152 v -3.904 l 6.832,-6.931 2.979,2.163 -4.782,9.222 z" /><path
           id="path46"
           style="fill:#231f20;fill-opacity:1;fill-rule:nonzero;stroke:none"
           d="m 259.1807,548.9795 h -5.791 c -3.384,0 -4.81,1.96 -4.81,5.211 v 32.025 c 0,2.45 4.41,2.45 4.41,0 v -12.204 c 2.984,1.87 5.835,4.187 8.106,7.126 1.559,2.005 5.479,-1.024 3.029,-3.563 -3.608,-3.786 -7.439,-6.503 -11.135,-8.596 v -13.452 c 0,-1.87 0.49,-2.137 2.004,-2.137 h 3.073 c 1.515,0 2.718,0.178 3.163,7.126 0.222,3.563 4.543,2.628 4.409,-0.89 -0.312,-7.573 -2.36,-10.646 -6.458,-10.646 m -20.934,1.069 v 6.013 c -3.029,-1.247 -6.547,-2.45 -9.666,-3.385 -2.404,-0.713 -4.231,3.875 -1.469,4.543 3.429,0.846 7.616,2.005 11.135,3.341 v 12.783 h -9.754 c -2.45,0 -2.45,4.231 0,4.231 h 9.754 v 8.908 c 0,2.45 4.365,2.45 4.365,0 v -36.434 c 0,-2.449 -4.365,-2.449 -4.365,0" /><path
           id="path48"
           style="fill:#231f20;fill-opacity:1;fill-rule:nonzero;stroke:none"
           d="m 307.7773,548.8906 h -2.717 c -3.742,0 -4.988,1.737 -4.988,5.79 v 21.914 c 0,0.579 -0.358,0.846 -0.803,0.846 h -8.284 c -0.267,-11.981 -2.806,-20.533 -12.071,-28.594 -2.538,-2.183 -5.389,1.692 -3.117,3.696 7.482,6.548 10.511,12.605 10.867,24.898 h -9.086 c -2.449,0 -2.449,4.321 0,4.321 h 9.131 v 4.721 c 0,2.316 4.32,2.539 4.32,0 v -4.721 h 9.711 c 2.404,0 3.785,-1.871 3.785,-4.365 v -21.914 c 0,-1.604 0.133,-2.272 1.426,-2.272 h 0.978 c 2.184,0 2.674,1.337 3.52,11.358 0.223,2.895 4.988,2.005 4.588,-1.069 -1.471,-11.269 -1.871,-14.609 -7.26,-14.609" /><path
           id="path50"
           style="fill:#231f20;fill-opacity:1;fill-rule:nonzero;stroke:none"
           d="m 358.1113,550.0933 v 36.167 c 0,2.449 4.453,2.449 4.453,0 v -36.167 c 0,-2.45 -4.453,-2.45 -4.453,0 m -5.213,16.212 c -0.266,1.604 -1.068,5.346 -2.359,8.686 -0.891,2.316 2.984,3.697 3.83,1.425 1.336,-3.563 2.316,-7.438 2.672,-8.997 0.58,-2.539 -3.698,-3.697 -4.143,-1.114 m -7.883,-14.52 v 32.871 c 0,2.45 4.321,2.45 4.321,0 v -32.871 c 0,-2.449 -4.321,-2.449 -4.321,0 m -5.033,14.52 c -0.267,1.604 -1.068,5.346 -2.361,8.686 -0.891,2.316 2.939,3.697 3.832,1.425 1.381,-3.563 2.359,-7.126 2.672,-8.997 0.445,-2.539 -3.698,-3.697 -4.143,-1.114 m -10.779,-17.459 c -1.781,-1.871 -5.522,1.203 -3.608,3.118 4.901,4.899 6.414,9.71 6.414,20.8 v 13.54 c 0,2.45 4.411,2.45 4.411,0 v -13.54 c 0,-11.625 -1.739,-18.084 -7.217,-23.918 m -0.713,15.945 c -0.979,-2.271 -4.943,-0.312 -3.918,1.915 0.668,1.47 1.646,4.989 1.826,9.755 0.133,2.405 4.186,2.405 4.098,-0.089 -0.223,-6.013 -1.203,-9.71 -2.006,-11.581" /><path
           id="path52"
           style="fill:#231f20;fill-opacity:1;fill-rule:nonzero;stroke:none"
           d="m 399.9355,551.7856 c -2.582,0.356 -2.137,4.944 0.445,4.543 5.924,-0.891 6.95,-0.891 6.95,0.891 v 12.828 c 0,0.445 -0.223,0.668 -0.668,0.668 h -10.645 v -20.355 c 0,-2.806 -4.633,-2.985 -4.633,0 v 20.355 h -10.334 c -0.445,0 -0.668,-0.223 -0.668,-0.668 v -17.059 c 0,-2.361 -4.543,-2.361 -4.543,0 v 18.617 c 0,2.138 1.069,3.207 3.207,3.207 h 12.338 v 4.588 h -16.035 c -2.449,0 -2.449,4.276 0,4.276 h 16.035 v 2.806 c 0,2.45 4.633,2.45 4.633,0 v -2.806 h 15.766 c 2.451,0 2.451,-4.276 0,-4.276 h -15.766 v -4.588 h 12.604 c 2.138,0 3.207,-1.069 3.207,-3.207 v -15.767 c 0,-4.588 -3.653,-5.256 -11.893,-4.053" /><path
           id="path54"
           style="fill:#231f20;fill-opacity:1;fill-rule:nonzero;stroke:none"
           d="m 232.5322,527.3853 c -3.487,0 -5.787,2.649 -5.787,6.365 0,3.472 2.3,6.214 5.787,6.214 2.178,0 4.036,-0.96 5.056,-3.031 0.411,-0.822 -0.99,-1.553 -1.493,-0.67 -0.791,1.492 -2.07,2.163 -3.563,2.163 -2.33,0 -4.157,-2.057 -4.157,-4.676 0,-2.741 1.72,-4.782 4.157,-4.782 1.614,0 2.985,0.792 3.731,2.392 0.427,0.883 1.904,0.228 1.462,-0.731 -0.944,-2.102 -2.711,-3.244 -5.193,-3.244" /><path
           id="path56"
           style="fill:#231f20;fill-opacity:1;fill-rule:nonzero;stroke:none"
           d="m 239.5835,528.2378 v 10.873 c 0,0.914 1.69,0.914 1.69,0 v -10.873 c 0,-0.914 -1.69,-0.914 -1.69,0" /><path
           id="path58"
           style="fill:#231f20;fill-opacity:1;fill-rule:nonzero;stroke:none"
           d="m 248.3701,538.0601 v -9.822 c 0,-0.899 -1.66,-0.899 -1.66,0 v 9.822 h -3.289 c -0.899,0 -0.899,1.553 0,1.553 h 8.208 c 0.914,0 0.914,-1.553 0,-1.553 z" /><path
           id="path60"
           style="fill:#231f20;fill-opacity:1;fill-rule:nonzero;stroke:none"
           d="m 258.9087,532.3345 v -4.082 c 0,-0.913 -1.645,-0.913 -1.645,0 v 4.082 l -4.568,6.228 c -0.624,0.853 0.715,1.736 1.325,0.898 l 4.066,-5.588 4.066,5.588 c 0.578,0.823 1.964,-0.03 1.324,-0.898 z" /><path
           id="path62"
           style="fill:#231f20;fill-opacity:1;fill-rule:nonzero;stroke:none"
           d="m 280.3506,538.4102 c -2.421,0 -4.355,-2.147 -4.355,-4.736 0,-2.589 1.934,-4.705 4.355,-4.705 2.421,0 4.355,2.116 4.355,4.705 0,2.589 -1.934,4.736 -4.355,4.736 m 0,-11.025 c -3.411,0 -5.985,2.65 -5.985,6.289 0,3.64 2.574,6.29 5.985,6.29 3.411,0 5.985,-2.65 5.985,-6.29 0,-3.639 -2.574,-6.289 -5.985,-6.289" /><path
           id="path64"
           style="fill:#231f20;fill-opacity:1;fill-rule:nonzero;stroke:none"
           d="m 290.4321,538.0752 c -0.335,0 -0.472,-0.137 -0.472,-0.487 v -3.031 h 5.315 c 1.035,0 1.035,-1.538 0.015,-1.538 h -5.33 v -4.751 c 0,-0.959 -1.63,-0.959 -1.63,0 v 9.701 c 0,1.096 0.549,1.644 1.645,1.644 h 5.756 c 1.036,0 1.021,-1.538 0.016,-1.538 z" /><path
           id="path66"
           style="fill:#231f20;fill-opacity:1;fill-rule:nonzero;stroke:none"
           d="m 316.2607,527.7656 -6.609,5.376 v -4.904 c 0,-0.898 -1.615,-0.898 -1.615,0 v 10.873 c 0,0.899 1.615,0.899 1.615,0 v -4.142 l 6.091,4.645 c 0.761,0.609 1.842,-0.503 0.99,-1.203 l -5.756,-4.371 6.365,-5.071 c 0.776,-0.655 -0.305,-1.873 -1.081,-1.203" /><path
           id="path68"
           style="fill:#231f20;fill-opacity:1;fill-rule:nonzero;stroke:none"
           d="m 318.8037,528.2378 v 10.873 c 0,0.914 1.69,0.914 1.69,0 v -10.873 c 0,-0.914 -1.69,-0.914 -1.69,0" /><path
           id="path70"
           style="fill:#231f20;fill-opacity:1;fill-rule:nonzero;stroke:none"
           d="m 327.5908,538.0601 v -9.822 c 0,-0.899 -1.659,-0.899 -1.659,0 v 9.822 h -3.29 c -0.899,0 -0.899,1.553 0,1.553 h 8.208 c 0.914,0 0.914,-1.553 0,-1.553 z" /><path
           id="path72"
           style="fill:#231f20;fill-opacity:1;fill-rule:nonzero;stroke:none"
           d="m 338.1289,537.7554 c -0.061,0.137 -0.229,0.122 -0.289,0 l -2.406,-5.284 h 5.086 z m 4.401,-9.685 -1.325,2.878 h -6.457 l -1.309,-2.878 c -0.442,-0.99 -1.98,-0.426 -1.539,0.563 l 4.751,10.325 c 0.503,1.112 2.178,1.127 2.681,0 l 4.736,-10.325 c 0.457,-0.989 -1.082,-1.553 -1.538,-0.563" /><path
           id="path74"
           style="fill:#231f20;fill-opacity:1;fill-rule:nonzero;stroke:none"
           d="m 353.708,527.7656 -6.609,5.376 v -4.904 c 0,-0.898 -1.615,-0.898 -1.615,0 v 10.873 c 0,0.899 1.615,0.899 1.615,0 v -4.142 l 6.091,4.645 c 0.761,0.609 1.842,-0.503 0.99,-1.203 l -5.756,-4.371 6.365,-5.071 c 0.776,-0.655 -0.305,-1.873 -1.081,-1.203" /><path
           id="path76"
           style="fill:#231f20;fill-opacity:1;fill-rule:nonzero;stroke:none"
           d="m 361.3682,532.3345 v -4.082 c 0,-0.913 -1.645,-0.913 -1.645,0 v 4.082 l -4.568,6.228 c -0.625,0.853 0.716,1.736 1.324,0.898 l 4.067,-5.588 4.065,5.588 c 0.579,0.823 1.965,-0.03 1.325,-0.898 z" /><path
           id="path78"
           style="fill:#231f20;fill-opacity:1;fill-rule:nonzero;stroke:none"
           d="m 372.0732,527.3853 c -2.497,0 -4.675,1.568 -4.675,4.371 v 7.37 c 0,0.898 1.63,0.898 1.63,0 v -7.279 c 0,-1.813 1.446,-2.863 3.03,-2.863 1.599,0 3.046,1.05 3.046,2.863 v 7.279 c 0,0.898 1.629,0.898 1.629,0 v -7.37 c 0,-2.818 -2.178,-4.386 -4.66,-4.371" /><path
           id="path80"
           style="fill:#231f20;fill-opacity:1;fill-rule:nonzero;stroke:none"
           d="m 383.6475,527.3853 c -2.832,0 -4.781,1.401 -4.979,3.685 -0.153,0.975 1.416,1.264 1.583,0.335 0.123,-1.401 1.402,-2.452 3.396,-2.452 2.36,0 3.274,0.99 3.274,2.163 0,0.837 -0.593,1.522 -1.796,1.857 -0.915,0.275 -2.086,0.381 -3.183,0.671 -1.843,0.502 -2.878,1.355 -2.878,2.924 -0.016,1.903 1.614,3.396 4.462,3.396 2.589,0 4.294,-1.067 4.583,-3 0.228,-0.93 -1.31,-1.31 -1.599,-0.396 -0.198,1.157 -1.157,1.888 -3.014,1.888 -1.767,0 -2.833,-0.792 -2.833,-1.873 0,-0.838 0.624,-1.188 1.796,-1.492 0.853,-0.229 2.087,-0.381 3.077,-0.656 1.903,-0.502 3.046,-1.522 3.046,-3.35 0,-2.101 -1.508,-3.7 -4.935,-3.7" /><path
           id="path82"
           style="fill:#231f20;fill-opacity:1;fill-rule:nonzero;stroke:none"
           d="m 398.5117,528.2378 v 4.934 h -6.487 v -4.934 c 0,-0.914 -1.63,-0.914 -1.63,0 v 10.888 c 0,0.899 1.63,0.899 1.63,0 v -4.416 h 6.487 v 4.416 c 0,0.899 1.645,0.899 1.645,0 v -10.888 c 0,-0.914 -1.645,-0.914 -1.645,0" /><path
           id="path84"
           style="fill:#231f20;fill-opacity:1;fill-rule:nonzero;stroke:none"
           d="m 407.2979,527.3853 c -2.497,0 -4.675,1.568 -4.675,4.371 v 7.37 c 0,0.898 1.63,0.898 1.63,0 v -7.279 c 0,-1.813 1.446,-2.863 3.03,-2.863 1.599,0 3.046,1.05 3.046,2.863 v 7.279 c 0,0.898 1.629,0.898 1.629,0 v -7.37 c 0,-2.818 -2.178,-4.386 -4.66,-4.371" /></g></g></g></svg>