<?xml version="1.0" standalone="no"?>
<!DOCTYPE svg PUBLIC "-//W3C//DTD SVG 20010904//EN"
 "http://www.w3.org/TR/2001/REC-SVG-20010904/DTD/svg10.dtd">
<svg version="1.0" xmlns="http://www.w3.org/2000/svg"
 width="511.000000pt" height="139.000000pt" viewBox="0 0 511.000000 139.000000"
 preserveAspectRatio="xMidYMid meet">

<g transform="translate(0.000000,139.000000) scale(0.100000,-0.100000)"
fill="#000000" stroke="none">
<path d="M1543 1293 c-9 -3 -13 -34 -13 -104 l0 -99 -100 0 c-87 0 -103 -3
-120 -20 -22 -22 -24 -29 -10 -50 7 -11 36 -16 117 -20 l108 -5 3 -122 c3
-143 15 -128 -139 -171 l-104 -29 0 -33 c0 -56 21 -59 132 -22 54 18 101 32
106 32 4 0 7 -31 7 -70 0 -66 1 -70 25 -76 55 -14 55 -15 55 395 0 280 -3 380
-12 389 -12 12 -33 14 -55 5z"/>
<path d="M2511 1291 c-8 -5 -16 -32 -19 -65 l-4 -56 -88 0 c-108 0 -120 -4
-120 -41 0 -40 24 -49 124 -49 l86 0 0 -53 c0 -69 -33 -197 -68 -266 -15 -30
-58 -87 -96 -128 -57 -61 -67 -77 -62 -98 4 -15 16 -27 32 -31 22 -6 34 2 81
47 116 114 173 240 196 431 l11 98 88 0 88 0 0 -242 c0 -298 3 -308 91 -322
80 -13 138 7 161 54 22 45 52 221 44 255 -8 30 -51 45 -71 24 -7 -8 -18 -57
-24 -109 -14 -115 -29 -142 -74 -138 l-32 3 -5 263 c-6 323 5 302 -161 302
l-109 0 0 53 c0 69 -26 95 -69 68z"/>
<path d="M3418 1289 c-16 -9 -18 -30 -18 -214 0 -287 -19 -372 -104 -474 -42
-50 -43 -54 -16 -81 28 -28 44 -25 80 13 55 57 98 161 115 272 15 104 21 451
7 471 -11 17 -45 24 -64 13z"/>
<path d="M3950 1292 c-8 -3 -18 -10 -22 -16 -4 -6 -8 -176 -8 -378 0 -320 2
-369 16 -382 19 -20 48 -21 63 -2 8 9 10 121 9 391 -3 367 -4 378 -23 385 -11
4 -27 5 -35 2z"/>
<path d="M4602 1288 c-7 -7 -12 -27 -12 -45 l0 -33 -164 0 c-136 0 -167 -3
-180 -16 -9 -8 -16 -22 -16 -29 0 -7 7 -21 16 -29 13 -13 44 -16 180 -16 l164
0 0 -45 0 -45 -139 0 c-114 0 -143 -3 -155 -16 -14 -13 -16 -48 -16 -223 0
-148 3 -210 12 -219 18 -18 56 -14 68 7 6 12 10 93 10 195 l0 176 110 0 110 0
0 -213 c0 -224 3 -237 45 -237 42 0 45 13 45 237 l0 214 113 -3 112 -3 3 -125
c4 -180 8 -173 -90 -168 -75 3 -81 2 -89 -19 -15 -40 16 -62 101 -69 91 -8
144 10 161 53 6 17 9 97 7 206 -3 163 -5 180 -22 193 -15 10 -55 14 -158 14
l-138 0 0 45 0 45 156 0 c88 0 164 4 175 10 21 12 25 50 7 68 -8 8 -62 12
-175 12 l-163 0 0 33 c0 38 -15 57 -45 57 -12 0 -26 -5 -33 -12z"/>
<path d="M1742 1278 c-9 -9 -12 -99 -12 -344 0 -341 4 -385 40 -404 10 -6 63
-10 118 -10 85 0 103 3 125 21 53 41 77 198 36 235 -38 34 -57 6 -74 -108 -3
-21 -13 -44 -21 -53 -19 -18 -104 -21 -122 -3 -8 8 -12 58 -12 157 l0 146 61
39 c69 44 155 119 170 148 8 14 6 25 -6 44 -21 32 -50 30 -77 -6 -20 -28 -129
-120 -142 -120 -3 0 -6 54 -6 119 0 66 -3 126 -6 135 -7 19 -55 21 -72 4z"/>
<path d="M3672 1248 c-9 -9 -12 -99 -12 -344 0 -183 3 -339 6 -348 7 -19 55
-21 72 -4 17 17 17 679 0 696 -7 7 -21 12 -33 12 -12 0 -26 -5 -33 -12z"/>
<path d="M507 1189 c-84 -20 -136 -66 -170 -150 l-22 -54 -58 -2 c-170 -6
-275 -191 -196 -344 10 -20 39 -54 63 -75 l45 -39 -15 -45 c-18 -51 -14 -122
10 -168 72 -139 225 -180 357 -96 l39 24 38 -24 c128 -84 286 -42 357 94 24
46 29 120 11 170 l-15 45 45 39 c113 97 122 249 19 351 -47 47 -132 81 -184
73 -25 -4 -29 0 -45 44 -41 116 -163 185 -279 157z m132 -74 c69 -35 111 -125
93 -196 l-10 -38 40 20 c138 70 283 -42 254 -195 -13 -68 -97 -135 -171 -136
l-30 -1 28 -17 c38 -24 67 -87 67 -149 0 -40 -6 -58 -30 -91 -16 -23 -43 -48
-60 -57 -41 -21 -119 -21 -165 0 -35 17 -85 77 -85 102 0 7 -4 13 -10 13 -5 0
-10 -6 -10 -13 0 -25 -50 -85 -85 -102 -46 -21 -124 -21 -165 0 -17 9 -44 34
-60 57 -25 34 -30 51 -30 96 0 63 27 119 68 145 l27 16 -30 1 c-44 1 -107 32
-138 69 -66 79 -39 219 53 266 41 21 123 19 169 -5 l39 -19 -11 40 c-17 70 19
148 87 190 38 23 125 25 165 4z"/>
<path d="M495 850 c-10 -55 -19 -100 -19 -100 -1 0 -39 7 -86 15 -47 8 -90 15
-97 15 -8 0 -33 -48 -33 -64 0 -1 41 -22 90 -46 50 -24 90 -50 90 -57 0 -7
-19 -51 -42 -98 l-43 -86 24 -19 25 -18 73 67 c68 62 73 69 73 109 0 23 5 42
10 42 6 0 10 -18 10 -40 0 -35 7 -48 66 -110 37 -38 69 -70 73 -70 3 1 17 10
30 21 l25 20 -47 95 -47 94 93 46 c50 26 93 47 95 49 7 6 -22 65 -31 65 -7 0
-50 -7 -97 -15 -47 -8 -86 -15 -86 -15 -1 0 -10 45 -19 100 -15 84 -21 100
-37 100 -16 0 -18 -10 -18 -105 0 -63 -4 -105 -10 -105 -6 0 -10 42 -10 105 0
95 -2 105 -18 105 -16 0 -22 -16 -37 -100z"/>
<path d="M3302 1088 c-5 -7 -13 -39 -17 -72 -4 -32 -13 -80 -21 -108 -8 -27
-12 -57 -9 -68 7 -21 35 -33 57 -25 33 13 73 240 48 270 -15 18 -44 20 -58 3z"/>
<path d="M3538 1083 c-28 -7 -29 -31 -3 -120 14 -47 25 -91 25 -98 0 -24 26
-36 54 -25 34 12 34 39 1 147 -25 82 -42 104 -77 96z"/>
<path d="M3774 1065 c-4 -9 3 -46 14 -83 11 -37 23 -81 27 -99 8 -39 24 -54
53 -46 35 9 36 44 5 145 -28 91 -29 93 -61 96 -22 2 -34 -2 -38 -13z"/>
<path d="M1354 319 c-53 -26 -71 -126 -34 -186 34 -56 119 -64 172 -16 19 17
24 53 8 53 -5 0 -14 -9 -19 -19 -14 -26 -65 -43 -95 -31 -56 21 -74 104 -35
154 28 36 86 36 119 1 22 -23 40 -25 40 -4 0 6 -12 21 -26 34 -29 27 -90 33
-130 14z"/>
<path d="M1557 323 c-4 -3 -7 -57 -7 -120 0 -94 3 -113 15 -113 13 0 15 20 15
120 0 110 -5 132 -23 113z"/>
<path d="M1627 324 c-15 -16 -5 -24 28 -24 l34 0 3 -102 c2 -84 6 -103 18
-103 12 0 16 19 18 103 l3 102 35 0 c24 0 34 4 32 13 -5 13 -158 23 -171 11z"/>
<path d="M1816 321 c-3 -5 17 -40 44 -77 42 -57 50 -76 50 -112 0 -61 23 -50
30 14 4 38 15 62 48 105 23 31 42 61 42 67 0 25 -21 10 -61 -43 -23 -30 -45
-55 -49 -55 -3 0 -24 25 -45 55 -37 54 -49 63 -59 46z"/>
<path d="M2313 320 c-61 -25 -83 -135 -37 -189 86 -102 246 -12 204 115 -23
69 -98 102 -167 74z m112 -45 c45 -44 27 -133 -31 -155 -51 -20 -114 30 -114
90 0 26 25 77 42 83 34 14 80 6 103 -18z"/>
<path d="M2543 324 c-9 -4 -13 -38 -13 -120 0 -95 3 -114 15 -114 12 0 15 13
15 55 l0 55 60 0 c33 0 60 4 60 9 0 14 -27 21 -76 21 -45 0 -45 0 -42 33 l3
32 63 3 c44 2 62 7 59 15 -4 12 -120 21 -144 11z"/>
<path d="M2927 323 c-4 -3 -7 -57 -7 -120 0 -94 3 -113 15 -113 11 0 15 12 15
50 0 28 3 50 6 50 3 0 34 -22 69 -50 35 -27 68 -50 74 -50 24 0 8 22 -49 67
-33 26 -60 53 -60 59 0 6 25 28 55 50 30 21 55 42 55 46 0 23 -27 14 -79 -26
-33 -25 -62 -46 -65 -46 -3 0 -6 20 -6 45 0 42 -7 54 -23 38z"/>
<path d="M3140 211 c0 -102 2 -121 15 -121 13 0 15 17 13 117 -2 82 -7 118
-15 121 -10 3 -13 -25 -13 -117z"/>
<path d="M3207 324 c-16 -16 -5 -24 33 -24 l40 0 0 -105 c0 -87 3 -105 15
-105 12 0 15 18 15 105 l0 105 41 0 c28 0 39 4 37 13 -5 13 -168 23 -181 11z"/>
<path d="M3475 275 c-14 -30 -36 -80 -50 -110 -28 -63 -30 -75 -12 -75 7 0 21
16 30 35 16 34 18 35 77 35 59 0 61 -1 77 -35 15 -32 43 -48 43 -25 0 6 -23
60 -51 120 -62 132 -76 138 -114 55z m72 -35 c11 -27 19 -51 15 -54 -8 -9 -94
-7 -90 2 2 4 11 28 22 55 10 26 21 47 25 47 3 0 16 -23 28 -50z"/>
<path d="M3677 323 c-4 -3 -7 -57 -7 -120 0 -94 3 -113 15 -113 11 0 15 12 15
50 0 28 3 50 6 50 3 0 34 -22 69 -50 35 -27 68 -50 74 -50 24 0 8 22 -54 72
-36 28 -65 52 -65 53 0 1 28 23 61 49 42 33 58 51 51 58 -7 7 -29 -4 -70 -36
-33 -25 -63 -46 -66 -46 -3 0 -6 20 -6 45 0 42 -7 54 -23 38z"/>
<path d="M3866 321 c-3 -5 14 -36 39 -70 34 -47 45 -70 45 -99 0 -20 4 -43 9
-51 15 -24 31 -2 31 43 0 35 8 53 45 102 44 59 56 89 33 82 -7 -3 -30 -27 -50
-54 -21 -27 -42 -50 -46 -52 -5 -1 -26 22 -47 53 -38 55 -49 63 -59 46z"/>
<path d="M4110 236 c0 -85 2 -98 23 -122 31 -36 96 -38 132 -4 23 22 25 30 25
123 0 74 -3 98 -12 95 -9 -3 -15 -36 -18 -99 -5 -87 -7 -94 -30 -106 -28 -14
-59 -8 -77 15 -8 10 -13 49 -13 104 0 72 -3 88 -15 88 -12 0 -15 -17 -15 -94z"/>
<path d="M4361 306 c-18 -19 -22 -32 -17 -51 7 -26 20 -34 95 -57 77 -23 79
-69 4 -84 -28 -6 -37 -2 -63 26 -35 37 -57 31 -37 -10 28 -56 154 -59 179 -5
23 51 -23 105 -91 105 -10 0 -29 8 -42 19 -20 16 -21 21 -10 35 20 24 87 21
103 -4 15 -23 38 -27 38 -5 0 55 -116 77 -159 31z"/>
<path d="M4570 210 c0 -100 3 -120 15 -120 12 0 15 13 15 55 l0 55 65 0 65 0
0 -55 c0 -42 3 -55 15 -55 13 0 15 20 15 121 0 92 -3 120 -12 117 -7 -3 -14
-25 -16 -51 l-3 -47 -65 0 -64 0 0 50 c0 38 -4 50 -15 50 -12 0 -15 -20 -15
-120z"/>
<path d="M4817 323 c-14 -13 -7 -163 8 -193 21 -40 72 -56 118 -36 20 8 40 24
47 35 15 29 9 193 -7 199 -10 3 -13 -18 -13 -83 0 -78 -2 -88 -25 -111 -19
-18 -31 -23 -48 -19 -44 14 -52 31 -55 125 -4 84 -9 100 -25 83z"/>
</g>
</svg>
